<?xml version="1.0" encoding="UTF-8" standalone="no"?>
<!DOCTYPE svg PUBLIC "-//W3C//DTD SVG 1.1//EN" "http://www.w3.org/Graphics/SVG/1.1/DTD/svg11.dtd">
<svg xmlns="http://www.w3.org/2000/svg" version="1.1" viewBox="0.00 0.00 1080.00 1080.00">
<path stroke="#1ca490" stroke-width="2.00" fill="none" stroke-linecap="butt" vector-effect="non-scaling-stroke" d="
  M 544.05 555.70
  Q 543.49 558.46 544.26 560.60"
/>
<path fill="#0094d9" d="
  M 198.73 617.13
  L 116.79 617.15
  A 2.78 2.72 -75.4 0 0 114.38 618.60
  L 89.87 663.27
  Q 89.62 663.73 89.14 663.93
  Q 87.50 664.62 85.74 664.51
  Q 67.73 663.38 49.74 664.90
  Q 46.84 665.14 45.06 664.73
  A 1.56 1.56 0.0 0 1 44.08 662.39
  Q 54.07 646.13 63.37 630.05
  Q 122.40 527.88 181.48 425.75
  Q 187.61 415.14 193.73 404.37
  Q 194.42 403.14 194.93 404.46
  C 196.26 407.85 196.49 412.15 197.15 415.16
  C 211.69 480.70 226.88 545.63 241.53 611.63
  C 245.36 628.91 249.53 646.39 253.67 663.72
  Q 253.97 664.99 252.66 665.01
  C 247.35 665.09 241.78 663.99 236.77 664.01
  Q 222.42 664.05 208.10 664.02
  A 1.99 1.99 0.0 0 1 206.13 662.32
  L 199.52 617.89
  A 0.89 0.78 85.4 0 0 198.73 617.13
  Z
  M 180.86 503.59
  Q 180.67 502.19 180.03 501.44
  A 0.97 0.97 0.0 0 0 178.41 501.68
  Q 177.41 503.94 176.28 506.07
  Q 165.01 527.45 153.12 548.49
  C 146.39 560.41 139.42 573.28 133.49 583.23
  A 1.14 1.13 15.2 0 0 134.47 584.94
  L 192.13 584.90
  Q 192.95 584.90 193.07 584.09
  Q 193.43 581.77 193.00 579.00
  Q 190.72 564.36 188.10 549.77
  Q 183.97 526.76 180.86 503.59
  Z"
/>
<path fill="#0094d9" d="
  M 382.75 652.83
  A 2.04 2.02 40.5 0 0 380.20 653.02
  Q 378.30 654.82 376.21 656.12
  Q 358.50 667.13 339.50 668.73
  C 308.37 671.36 283.16 645.33 275.78 617.03
  C 272.99 606.31 272.17 597.57 273.14 584.26
  Q 274.37 567.38 282.04 548.84
  C 289.90 529.84 299.97 514.21 315.72 500.00
  Q 327.31 489.55 341.25 484.03
  C 347.57 481.53 353.94 480.83 361.35 480.28
  C 375.52 479.21 389.35 481.00 401.74 488.32
  C 403.94 489.62 405.77 491.50 407.72 493.22
  Q 409.04 494.39 410.08 493.34
  Q 410.63 492.78 410.80 491.52
  C 411.88 483.18 414.26 472.91 415.34 466.83
  C 417.02 457.46 418.45 448.50 420.50 438.77
  Q 423.23 425.82 425.27 412.76
  A 1.48 1.48 0.0 0 1 426.73 411.50
  L 460.75 411.37
  A 0.78 0.55 -83.7 0 1 461.25 412.27
  L 418.47 663.07
  A 1.88 1.86 -83.7 0 1 416.54 664.63
  Q 402.82 663.98 389.00 664.49
  Q 385.73 664.61 382.75 664.19
  A 0.93 0.93 0.0 0 1 381.96 663.13
  Q 382.65 658.76 383.15 654.24
  Q 383.27 653.19 382.75 652.83
  Z
  M 337.62 635.71
  C 359.04 643.24 376.21 626.08 384.87 608.84
  C 395.70 587.26 399.72 563.75 402.37 539.99
  C 402.93 535.01 403.26 532.54 400.60 528.63
  C 382.77 502.35 351.73 514.36 335.15 533.62
  Q 325.90 544.37 321.82 554.27
  C 313.29 574.94 308.12 602.23 320.57 622.69
  C 324.68 629.43 330.38 633.17 337.62 635.71
  Z"
/>
<path fill="#0094d9" d="
  M 724.13 455.83
  A 23.97 23.97 0.0 0 1 700.16 479.80
  A 23.97 23.97 0.0 0 1 676.19 455.83
  A 23.97 23.97 0.0 0 1 700.16 431.86
  A 23.97 23.97 0.0 0 1 724.13 455.83
  Z
  M 711.9364 444.9823
  A 1.68 1.68 0.0 0 0 710.2623 443.2965
  L 689.4024 443.2237
  A 1.68 1.68 0.0 0 0 687.7166 444.8978
  L 687.6436 465.8177
  A 1.68 1.68 0.0 0 0 689.3177 467.5035
  L 710.1776 467.5763
  A 1.68 1.68 0.0 0 0 711.8634 465.9022
  L 711.9364 444.9823
  Z"
/>
<path fill="#38b347" d="
  M 542.69 550.81
  C 536.24 539.96 528.81 528.50 519.79 519.61
  C 516.48 516.36 513.28 512.91 509.72 510.17
  C 493.77 497.90 476.12 490.37 456.46 485.97
  Q 449.17 484.34 456.58 484.12
  C 460.40 484.01 464.50 482.93 468.49 482.96
  C 494.07 483.15 517.09 489.21 530.70 512.52
  C 536.86 523.06 540.46 536.33 543.32 547.74
  Q 543.80 549.67 543.55 552.18
  Q 543.47 553.08 543.15 552.23
  C 542.98 551.75 542.97 551.28 542.69 550.81
  Z"
/>
<path fill="#0094d9" d="
  M 937.80 585.56
  C 937.38 592.22 937.20 599.04 938.49 605.78
  Q 939.72 612.24 940.45 614.25
  C 951.45 644.49 990.10 629.35 1009.14 619.09
  A 0.96 0.96 0.0 0 1 1010.55 620.00
  Q 1009.43 635.14 1009.26 650.76
  C 1009.25 652.34 1008.50 653.28 1007.15 653.86
  C 985.13 663.36 956.24 670.50 933.45 659.21
  C 910.14 647.67 900.40 619.24 900.28 596.20
  C 900.25 590.32 900.12 584.34 900.64 578.61
  C 902.28 560.53 908.09 544.26 916.71 528.99
  C 929.52 506.26 951.67 488.83 978.24 486.36
  C 983.66 485.86 988.90 484.64 994.02 485.45
  C 998.47 486.14 1003.19 486.34 1007.28 487.40
  C 1023.84 491.67 1036.83 499.74 1043.62 516.12
  A 4.84 4.74 -57.2 0 1 1043.99 517.92
  Q 1044.03 532.61 1043.98 547.75
  Q 1043.98 549.46 1043.00 551.60
  C 1025.61 589.71 982.28 598.19 945.43 586.39
  C 943.67 585.82 942.03 584.86 940.27 584.07
  A 1.75 1.75 0.0 0 0 937.80 585.56
  Z
  M 959.13 558.37
  Q 967.13 559.44 979.23 558.21
  Q 987.73 557.34 998.31 552.80
  C 1005.80 549.58 1013.48 544.22 1014.59 535.90
  Q 1015.46 529.31 1010.09 523.93
  C 1000.94 514.75 987.99 513.90 976.56 518.85
  C 961.85 525.23 949.09 537.64 944.21 553.39
  A 0.77 0.76 25.9 0 0 944.51 554.25
  C 948.03 556.61 954.92 557.81 959.13 558.37
  Z"
/>
<path fill="#0094d9" d="
  M 866.35 530.97
  C 850.79 522.55 834.04 516.12 816.89 524.61
  Q 808.83 528.61 802.60 535.83
  C 786.15 554.89 781.56 583.04 785.03 607.50
  Q 787.42 624.39 802.02 632.03
  C 805.62 633.92 812.96 635.16 817.12 634.86
  Q 834.44 633.62 848.97 623.92
  Q 852.62 621.49 856.26 619.02
  Q 857.03 618.50 857.51 618.54
  Q 858.18 618.59 858.14 619.26
  Q 857.75 627.69 857.09 635.63
  C 856.63 641.28 856.69 646.59 856.66 652.13
  Q 856.65 654.20 854.87 655.12
  C 840.61 662.49 823.14 667.74 807.28 667.07
  C 773.87 665.65 753.38 639.24 748.74 608.00
  Q 745.97 589.36 749.01 575.00
  C 752.44 558.81 755.64 549.09 763.31 535.01
  Q 770.36 522.07 782.94 510.18
  C 797.72 496.21 819.63 487.74 840.24 489.82
  Q 857.41 491.56 873.13 498.61
  C 876.25 500.01 873.76 506.03 872.75 509.13
  C 870.47 516.16 869.01 523.39 867.37 530.52
  A 0.70 0.70 0.0 0 1 866.35 530.97
  Z"
/>
<path fill="#0094d9" d="
  M 544.05 555.70
  Q 543.49 558.46 544.26 560.60
  Q 544.44 564.93 543.09 567.80
  A 6.22 6.22 0.0 0 0 543.19 573.29
  L 545.43 577.66
  Q 546.83 580.38 548.46 577.79
  Q 582.46 523.66 599.09 496.07
  C 600.82 493.20 602.17 492.85 605.62 492.91
  Q 623.69 493.19 641.66 492.71
  A 0.43 0.43 0.0 0 1 642.05 493.35
  Q 633.83 507.85 625.29 522.24
  C 618.36 533.95 611.89 546.48 604.66 558.25
  Q 601.94 562.68 599.45 567.23
  C 596.16 573.25 592.32 579.24 588.76 585.75
  Q 583.16 595.98 563.09 630.21
  C 560.97 633.83 557.37 640.61 554.10 645.59
  Q 552.60 647.87 548.92 654.78
  C 545.82 660.57 541.00 667.49 538.16 674.43
  Q 537.59 675.84 536.47 675.68
  Q 535.97 675.60 535.84 675.11
  C 533.91 667.32 532.09 659.21 530.06 651.79
  C 526.02 637.00 522.16 622.19 517.90 607.46
  C 516.27 601.84 514.95 595.83 513.34 590.54
  Q 508.00 572.95 502.83 555.31
  C 495.88 531.65 485.37 511.09 464.09 497.55
  Q 463.04 496.88 464.23 497.25
  C 483.05 503.11 501.32 513.90 514.44 528.93
  C 521.00 536.43 527.40 545.88 532.58 553.51
  Q 533.73 555.21 535.34 555.83
  Q 535.79 556.00 536.02 556.42
  Q 536.54 557.34 537.54 557.85
  A 1.64 1.63 29.3 0 0 539.68 557.25
  Q 539.92 556.87 540.05 556.59
  Q 540.15 556.40 540.33 556.27
  Q 540.83 555.92 540.57 555.11
  Q 540.46 554.78 540.80 554.87
  Q 540.95 554.92 540.98 555.12
  Q 541.00 555.27 541.13 555.22
  Q 542.73 554.62 544.05 555.70
  Z"
/>
<path fill="#0094d9" d="
  M 682.41 516.29
  C 681.69 508.41 675.29 498.94 669.94 493.53
  A 0.39 0.39 0.0 0 1 670.22 492.87
  L 721.28 493.02
  A 0.68 0.68 0.0 0 1 721.95 493.81
  L 695.17 661.50
  Q 695.01 662.49 694.01 662.49
  L 662.02 662.49
  A 1.04 1.03 4.7 0 1 660.99 661.29
  Q 662.70 650.49 664.71 639.29
  Q 667.29 624.94 669.31 610.50
  Q 670.88 599.28 672.74 588.10
  C 675.92 569.04 678.49 550.14 681.58 531.18
  C 682.42 526.03 682.84 520.90 682.41 516.29
  Z"
/>
<path fill="#38b347" d="
  M 544.05 555.70
  Q 544.64 558.15 544.26 560.60
  Q 543.49 558.46 544.05 555.70
  Z"
/>
</svg>
